<svg width="23" height="18" fill="none" xmlns="http://www.w3.org/2000/svg"><path d="M18.413 6.202c-.623-1.36-1.53-2.55-2.776-3.4-1.247-.85-2.72-1.36-4.307-1.36-1.133 0-2.153.283-2.947.566a7.482 7.482 0 00-3.4 2.834c-.85 1.303-1.416 2.72-1.416 4.363 0 1.077.226 2.153.623 2.947.623 1.36 1.53 2.55 2.777 3.4a7.662 7.662 0 004.363 1.36c1.077 0 2.153-.284 2.947-.567 1.36-.623 2.55-1.53 3.4-2.833.85-1.304 1.36-2.72 1.36-4.307 0-1.133-.17-2.153-.624-3.003zm-3.4 7.65a30.32 30.32 0 00-1.02-3.684c.227 0 .624-.113.85-.113.68 0 1.247.113 1.757.17.17 0 .34.113.51.113-.17.737-.453 1.36-.85 2.04-.283.51-.68 1.077-1.247 1.474zm2.267-5.157c-.17 0-.34-.113-.623-.113-.51-.057-1.19-.17-1.927-.17-.453 0-.85 0-1.247.113v-.113c-.113-.17-.17-.454-.283-.567a12.194 12.194 0 002.493-1.53c.227-.283.454-.453.624-.567.51.794.85 1.814.963 2.947zm-2.89-3.57c-.453.283-1.133.85-2.04 1.133-.51-.906-1.02-1.7-1.417-2.266-.226-.284-.396-.51-.566-.737.226-.113.623-.113.963-.113 1.417 0 2.72.51 3.74 1.246-.17.284-.34.454-.68.737zm-5.893-1.19c.34.51 1.133 1.643 1.983 2.947-2.153.51-4.08.623-4.93.68.283-.794.623-1.417 1.133-2.04a4.851 4.851 0 011.814-1.587zm-.85 5.27a24.3 24.3 0 003.683-.68c.057.17.17.34.227.51a8.11 8.11 0 00-2.21 1.133 8.029 8.029 0 00-2.21 2.154c-.17.17-.34.453-.51.623-.737-.963-1.19-2.21-1.247-3.513.397-.057 1.247-.17 2.267-.227zm1.303 3.57c.68-.68 1.813-1.53 3.343-2.153.68 1.87 1.02 3.4 1.19 4.136-.68.284-1.36.34-2.153.34-1.247 0-2.493-.453-3.513-1.133.17-.17.51-.68 1.133-1.19z" fill="#fff"/></svg>