<svg width="100" height="100" fill="none" xmlns="http://www.w3.org/2000/svg"><path fill-rule="evenodd" clip-rule="evenodd" d="M50 36.667c-7.333 0-13.333 6-13.333 13.333s6 13.333 13.333 13.333 13.333-6 13.333-13.333-6-13.333-13.333-13.333zm0 20c-3.667 0-6.667-3-6.667-6.667s3-6.667 6.667-6.667 6.667 3 6.667 6.667-3 6.667-6.667 6.667zM80 60c5.667 0 10-4.333 10-10s-4.333-10-10-10h-1.667C78 39 77.667 38 77 37l1.333-1.333c4-4 4-10.334 0-14-4-4-10.333-4-14 0L63 23c-1-.333-2-1-3-1.333V20c0-5.667-4.333-10-10-10s-10 4.333-10 10v1.667C39 22 38 22.333 37 23l-1.333-1.333c-4-4-10.334-4-14 0-4 4-4 10.333 0 14L23 37c-.333 1-1 2-1.333 3H20c-5.667 0-10 4.333-10 10s4.333 10 10 10h1.667c.333 1 .666 2 1.333 3l-1.333 1.333c-4 4-4 10.334 0 14 4 4 10.333 4 14 0L37 77c1 .333 2 1 3 1.333V80c0 5.667 4.333 10 10 10s10-4.333 10-10v-1.667c1-.333 2-.666 3-1.333l1.333 1.333c4 4 10.334 4 14 0 4-4 4-10.333 0-14L77 63c.333-1 1-2 1.333-3H80zm-6.667 8.667c1.334 1.333 1.334 3.666 0 5C72 75 70 75 68.667 73.667L64 69c-3 2.333-6.667 4-10.667 4.333V80c0 2-1.333 3.333-3.333 3.333S46.667 82 46.667 80v-7c-4-.667-7.667-2-10.667-4.333l-4.667 4.666c-1.333 1.334-3.333 1.334-4.666 0-1.334-1.333-1.334-3.333 0-4.666L31.333 64c-2.333-3-4-6.667-4.333-10.667h-7c-2 0-3.333-1.333-3.333-3.333S18 46.667 20 46.667h7c.667-4 2-7.667 4.333-10.667l-4.666-4.667c-1.334-1.333-1.334-3.333 0-4.666 1.333-1.334 3.333-1.334 4.666 0L36 31.333c3-2.333 6.667-4 10.667-4.333v-7c0-2 1.333-3.333 3.333-3.333S53.333 18 53.333 20v7c4 .667 7.667 2 10.667 4.333l4.667-4.666c1.333-1.334 3.333-1.334 4.666 0 1.334 1.333 1.334 3.333 0 4.666L68.667 36c2.333 3 4 6.667 4.333 10.667h7c2 0 3.333 1.333 3.333 3.333S82 53.333 80 53.333h-7c-.667 4-2 7.667-4.333 10.667l4.666 4.667z" fill="#000"/></svg>