<svg width="23" height="18" fill="none" xmlns="http://www.w3.org/2000/svg"><path d="M17.847 6.315v.397c0 4.25-3.23 9.123-9.124 9.123a9.122 9.122 0 01-4.93-1.417c.227 0 .51.057.794.057 1.53 0 2.89-.51 3.966-1.36-1.416 0-2.606-.963-3.003-2.21.17.057.397.057.623.057.284 0 .567-.057.85-.114-1.473-.34-2.606-1.643-2.606-3.173v-.057c.453.227.906.397 1.473.397a3.173 3.173 0 01-1.417-2.663c0-.567.17-1.134.454-1.587 1.586 1.927 3.966 3.23 6.63 3.343-.057-.226-.057-.453-.057-.736a3.229 3.229 0 013.23-3.23 3.16 3.16 0 012.323 1.02c.737-.17 1.417-.397 2.04-.794a3.103 3.103 0 01-1.416 1.757 6.693 6.693 0 001.756-.453c-.453.623-.963 1.19-1.586 1.643z" fill="#fff"/></svg>