<svg width="100" height="100" viewBox="0 0 100 100" fill="none" xmlns="http://www.w3.org/2000/svg">
<path fill-rule="evenodd" clip-rule="evenodd" d="M76.6666 13.3333H23.3333C17.6666 13.3333 13.3333 17.6666 13.3333 23.3333V76.6666C13.3333 82.3333 17.6666 86.6666 23.3333 86.6666H76.6666C82.3333 86.6666 86.6666 82.3333 86.6666 76.6666V23.3333C86.6666 17.6666 82.3333 13.3333 76.6666 13.3333ZM36.6666 80H23.3333C21.3333 80 20 78.6666 20 76.6666V40H36.6666V80ZM80 76.6666C80 78.6666 78.6666 80 76.6666 80H43.3333V40H80V76.6666ZM80 33.3333H20V23.3333C20 21.3333 21.3333 20 23.3333 20H76.6666C78.6666 20 80 21.3333 80 23.3333V33.3333Z" fill="black"/>
</svg>
