<svg width="100" height="100" viewBox="0 0 100 100" fill="none" xmlns="http://www.w3.org/2000/svg">
<path fill-rule="evenodd" clip-rule="evenodd" d="M66.6667 42.6666V36.6666C66.6667 31 62.3333 26.6666 56.6667 26.6666H20C14.3333 26.6666 10 31 10 36.6666V63.3333C10 69 14.3333 73.3333 20 73.3333H56.6667C62.3333 73.3333 66.6667 69 66.6667 63.3333V57.3333L90 70V30L66.6667 42.6666ZM60 63.3333C60 65.3333 58.6667 66.6666 56.6667 66.6666H20C18 66.6666 16.6667 65.3333 16.6667 63.3333V36.6666C16.6667 34.6666 18 33.3333 20 33.3333H56.6667C58.6667 33.3333 60 34.6666 60 36.6666V63.3333ZM83.3333 58.6666L67.3333 50L83.3333 41.3333V58.6666Z" fill="black"/>
</svg>
