<svg width="100" height="100" viewBox="0 0 100 100" fill="none" xmlns="http://www.w3.org/2000/svg">
<path fill-rule="evenodd" clip-rule="evenodd" d="M60 20C47 20 36 28.3333 31.6667 40H30C19 40 10 49 10 60C10 71 19 80 30 80H60C76.6667 80 90 66.6667 90 50C90 33.3333 76.6667 20 60 20ZM60 73.3333H30C22.6667 73.3333 16.6667 67.3333 16.6667 60C16.6667 52.6667 22.6667 46.6667 30 46.6667H37C38.6667 35.3333 48.3333 26.6667 60 26.6667C73 26.6667 83.3333 37 83.3333 50C83.3333 63 73 73.3333 60 73.3333Z" fill="black"/>
</svg>
