<svg width="23" height="18" viewBox="0 0 23 18" fill="none" xmlns="http://www.w3.org/2000/svg">
<path d="M18.4133 6.20165C17.79 4.84165 16.8833 3.65165 15.6367 2.80165C14.39 1.95165 12.9167 1.44165 11.33 1.44165C10.1967 1.44165 9.17667 1.72498 8.38333 2.00832C7.02333 2.57498 5.83333 3.53832 4.98333 4.84165C4.13333 6.14498 3.56667 7.56165 3.56667 9.20498C3.56667 10.2817 3.79333 11.3583 4.19 12.1517C4.81333 13.5117 5.72 14.7016 6.96667 15.5517C8.21333 16.4017 9.68667 16.9116 11.33 16.9116C12.4067 16.9116 13.4833 16.6283 14.2767 16.345C15.6367 15.7217 16.8267 14.815 17.6767 13.5117C18.5267 12.2083 19.0367 10.7916 19.0367 9.20498C19.0367 8.07165 18.8667 7.05165 18.4133 6.20165ZM15.0133 13.8517C14.8433 13.0583 14.56 11.8117 13.9933 10.1683C14.22 10.1683 14.6167 10.055 14.8433 10.055C15.5233 10.055 16.09 10.1683 16.6 10.225C16.77 10.225 16.94 10.3383 17.11 10.3383C16.94 11.075 16.6567 11.6983 16.26 12.3783C15.9767 12.8883 15.58 13.455 15.0133 13.8517ZM17.28 8.69498C17.11 8.69498 16.94 8.58165 16.6567 8.58165C16.1467 8.52498 15.4667 8.41165 14.73 8.41165C14.2767 8.41165 13.88 8.41165 13.4833 8.52498V8.41165C13.37 8.24165 13.3133 7.95832 13.2 7.84498C14.3333 7.33498 15.1833 6.71165 15.6933 6.31498C15.92 6.03165 16.1467 5.86165 16.3167 5.74832C16.8267 6.54165 17.1667 7.56165 17.28 8.69498ZM14.39 5.12498C13.9367 5.40832 13.2567 5.97498 12.35 6.25832C11.84 5.35165 11.33 4.55832 10.9333 3.99165C10.7067 3.70832 10.5367 3.48165 10.3667 3.25498C10.5933 3.14165 10.99 3.14165 11.33 3.14165C12.7467 3.14165 14.05 3.65165 15.07 4.38832C14.9 4.67165 14.73 4.84165 14.39 5.12498ZM8.49667 3.93498C8.83667 4.44498 9.63 5.57832 10.48 6.88165C8.32667 7.39165 6.4 7.50498 5.55 7.56165C5.83333 6.76832 6.17333 6.14498 6.68333 5.52165C7.13667 4.84165 7.81667 4.27498 8.49667 3.93498ZM7.64667 9.20498C8.78 9.09165 10.0267 8.86498 11.33 8.52498C11.3867 8.69498 11.5 8.86498 11.5567 9.03498C10.7067 9.31832 9.97 9.71498 9.34667 10.1683C8.32667 10.8483 7.64667 11.585 7.13667 12.3217C6.96667 12.4917 6.79667 12.775 6.62667 12.945C5.89 11.9816 5.43667 10.735 5.38 9.43165C5.77667 9.37498 6.62667 9.26165 7.64667 9.20498ZM8.95 12.775C9.63 12.095 10.7633 11.245 12.2933 10.6217C12.9733 12.4917 13.3133 14.0217 13.4833 14.7583C12.8033 15.0417 12.1233 15.0983 11.33 15.0983C10.0833 15.0983 8.83667 14.645 7.81667 13.965C7.98667 13.795 8.32667 13.285 8.95 12.775Z" fill="white"/>
</svg>
