<svg width="100" height="100" viewBox="0 0 100 100" fill="none" xmlns="http://www.w3.org/2000/svg">
<path fill-rule="evenodd" clip-rule="evenodd" d="M50 36.6667C42.6667 36.6667 36.6667 42.6667 36.6667 50C36.6667 57.3333 42.6667 63.3333 50 63.3333C57.3333 63.3333 63.3333 57.3333 63.3333 50C63.3333 42.6667 57.3333 36.6667 50 36.6667ZM50 56.6667C46.3333 56.6667 43.3333 53.6667 43.3333 50C43.3333 46.3333 46.3333 43.3333 50 43.3333C53.6667 43.3333 56.6667 46.3333 56.6667 50C56.6667 53.6667 53.6667 56.6667 50 56.6667ZM80 60C85.6667 60 90 55.6667 90 50C90 44.3333 85.6667 40 80 40H78.3333C78 39 77.6667 38 77 37L78.3333 35.6667C82.3333 31.6667 82.3333 25.3333 78.3333 21.6667C74.3333 17.6667 68 17.6667 64.3333 21.6667L63 23C62 22.6667 61 22 60 21.6667V20C60 14.3333 55.6667 10 50 10C44.3333 10 40 14.3333 40 20V21.6667C39 22 38 22.3333 37 23L35.6667 21.6667C31.6667 17.6667 25.3333 17.6667 21.6667 21.6667C17.6667 25.6667 17.6667 32 21.6667 35.6667L23 37C22.6667 38 22 39 21.6667 40H20C14.3333 40 10 44.3333 10 50C10 55.6667 14.3333 60 20 60H21.6667C22 61 22.3333 62 23 63L21.6667 64.3333C17.6667 68.3333 17.6667 74.6667 21.6667 78.3333C25.6667 82.3333 32 82.3333 35.6667 78.3333L37 77C38 77.3333 39 78 40 78.3333V80C40 85.6667 44.3333 90 50 90C55.6667 90 60 85.6667 60 80V78.3333C61 78 62 77.6667 63 77L64.3333 78.3333C68.3333 82.3333 74.6667 82.3333 78.3333 78.3333C82.3333 74.3333 82.3333 68 78.3333 64.3333L77 63C77.3333 62 78 61 78.3333 60H80ZM73.3333 68.6667C74.6667 70 74.6667 72.3333 73.3333 73.6667C72 75 70 75 68.6667 73.6667L64 69C61 71.3333 57.3333 73 53.3333 73.3333V80C53.3333 82 52 83.3333 50 83.3333C48 83.3333 46.6667 82 46.6667 80V73C42.6667 72.3333 39 71 36 68.6667L31.3333 73.3333C30 74.6667 28 74.6667 26.6667 73.3333C25.3333 72 25.3333 70 26.6667 68.6667L31.3333 64C29 61 27.3333 57.3333 27 53.3333H20C18 53.3333 16.6667 52 16.6667 50C16.6667 48 18 46.6667 20 46.6667H27C27.6667 42.6667 29 39 31.3333 36L26.6667 31.3333C25.3333 30 25.3333 28 26.6667 26.6667C28 25.3333 30 25.3333 31.3333 26.6667L36 31.3333C39 29 42.6667 27.3333 46.6667 27V20C46.6667 18 48 16.6667 50 16.6667C52 16.6667 53.3333 18 53.3333 20V27C57.3333 27.6667 61 29 64 31.3333L68.6667 26.6667C70 25.3333 72 25.3333 73.3333 26.6667C74.6667 28 74.6667 30 73.3333 31.3333L68.6667 36C71 39 72.6667 42.6667 73 46.6667H80C82 46.6667 83.3333 48 83.3333 50C83.3333 52 82 53.3333 80 53.3333H73C72.3333 57.3333 71 61 68.6667 64L73.3333 68.6667Z" fill="black"/>
</svg>
