<svg width="23" height="18" viewBox="0 0 23 18" fill="none" xmlns="http://www.w3.org/2000/svg">
<path d="M17.8467 6.31494C17.8467 6.42827 17.8467 6.59827 17.8467 6.7116C17.8467 10.9616 14.6167 15.8349 8.72334 15.8349C6.91 15.8349 5.21 15.3249 3.79333 14.4183C4.02 14.4183 4.30334 14.4749 4.58667 14.4749C6.11667 14.4749 7.47667 13.9649 8.55334 13.1149C7.13667 13.1149 5.94667 12.1516 5.55 10.9049C5.72 10.9616 5.94667 10.9616 6.17334 10.9616C6.45667 10.9616 6.74 10.9049 7.02334 10.8483C5.55 10.5083 4.41667 9.20494 4.41667 7.67493C4.41667 7.67493 4.41667 7.67493 4.41667 7.61827C4.87 7.84493 5.32334 8.01494 5.89 8.01494C5.04 7.44827 4.47333 6.48494 4.47333 5.3516C4.47333 4.78493 4.64334 4.21827 4.92667 3.76493C6.51334 5.6916 8.89334 6.99493 11.5567 7.10827C11.5 6.8816 11.5 6.65493 11.5 6.3716C11.5 4.61493 12.9167 3.1416 14.73 3.1416C15.6367 3.1416 16.4867 3.53827 17.0533 4.1616C17.79 3.9916 18.47 3.76493 19.0933 3.36827C18.8667 4.10493 18.3567 4.72827 17.6767 5.12493C18.2433 5.06827 18.8667 4.89827 19.4333 4.6716C18.98 5.29493 18.47 5.8616 17.8467 6.31494Z" fill="white"/>
</svg>
