<svg width="23" height="18" viewBox="0 0 23 18" fill="none" xmlns="http://www.w3.org/2000/svg">
<path d="M15.41 7.33495C15.41 7.33495 14.1633 11.3016 14.05 11.585C13.9933 11.245 13.0867 4.16162 13.0867 4.16162C10.9333 4.16162 9.79999 5.69162 9.17666 7.27829C9.17666 7.27829 7.64666 11.245 7.53333 11.585C7.53333 11.3016 7.30666 7.33495 7.30666 7.33495C7.19333 5.35162 5.38 4.16162 3.90666 4.16162L5.66333 14.8716C7.93 14.8716 9.11999 13.3416 9.74333 11.755C9.74333 11.755 11.1033 8.24162 11.16 8.12829C11.16 8.29829 12.1233 14.9283 12.1233 14.9283C14.39 14.9283 15.58 13.5116 16.26 11.925L19.4333 4.16162C17.2233 4.16162 16.0333 5.69162 15.41 7.33495Z" fill="white"/>
</svg>
